<?xml version="1.0" encoding="UTF-8"?>
<!DOCTYPE svg PUBLIC "-//W3C//DTD SVG 1.1//EN" "http://www.w3.org/Graphics/SVG/1.1/DTD/svg11.dtd">
<!-- Creator: CorelDRAW -->
<svg xmlns="http://www.w3.org/2000/svg" xml:space="preserve" width="2048px" height="2048px" style="shape-rendering:geometricPrecision; text-rendering:geometricPrecision; image-rendering:optimizeQuality; fill-rule:evenodd; clip-rule:evenodd"
viewBox="0 0 2048 2048"
 xmlns:xlink="http://www.w3.org/1999/xlink">
 <defs>
  <style type="text/css">
   <![CDATA[
    .fil3 {fill:none}
    .fil2 {fill:#282929}
    .fil1 {fill:#545454}
    .fil0 {fill:#717171}
   ]]>
  </style>
 </defs>
 <g id="Layer_x0020_1">
  <metadata id="CorelCorpID_0Corel-Layer"/>
  <g id="_459777176">
   <path id="_459777752" class="fil0" d="M1024 415.998c167.882,0 319.885,68.054 429.916,178.086 110.032,110.03 178.086,262.034 178.086,429.916 0,167.882 -68.054,319.885 -178.086,429.916 -110.03,110.032 -262.034,178.086 -429.916,178.086 -167.882,0 -319.885,-68.054 -429.916,-178.086 -110.032,-110.03 -178.086,-262.034 -178.086,-429.916 0,-167.882 68.054,-319.885 178.086,-429.916 110.03,-110.032 262.034,-178.086 429.916,-178.086z"/>
   <path id="_459777584" class="fil1" d="M1235.44 261.96c31.4244,8.70119 61.8638,19.1953 91.1953,31.3571 29.6823,12.3059 58.6311,26.4851 86.7072,42.3957l19.4705 11.035 -3.12402 22.0417 -21.7973 153.755 136.665 136.665 136.335 -32.0823 24.2303 -5.70119 12.065 21.9189c14.7012,26.7107 27.8752,54.2882 39.4063,82.6111 11.2949,27.7382 21.1453,56.6422 29.4449,86.6032l5.96457 21.5292 -17.9339 13.4799 -124.032 93.2316 0 193.44 118.995 73.6595 21.2362 13.1457 -6.94961 23.9221c-8.55355,29.4366 -18.7902,58.2024 -30.5988,86.1804 -12.0024,28.4445 -25.5189,55.878 -40.4315,82.1918l-11.035 19.4705 -22.0417 -3.12402 -153.757 -21.7984 -136.665 136.665 32.0835 136.337 5.70119 24.2303 -21.9189 12.065c-26.7095,14.7 -54.2882,27.874 -82.6099,39.4051 -27.7394,11.2937 -56.6422,21.1441 -86.6044,29.4449l-21.5292 5.96457 -13.4799 -17.9339 -93.2316 -124.032 -193.44 0 -73.6595 118.995 -13.1469 21.2374 -23.9209 -6.95079c-28.2402,-8.20631 -55.5012,-17.7851 -81.6946,-28.6441 -26.7815,-11.1036 -52.8107,-23.6303 -77.9894,-37.4859l-21.9201 -12.0626 5.70237 -24.2327 32.0835 -136.337 -136.665 -136.665 -153.757 21.7984 -22.0406 3.12402 -11.0362 -19.4705c-14.9114,-26.3103 -28.428,-53.7426 -40.4292,-82.1835 -11.8075,-27.9815 -22.0477,-56.7508 -30.6012,-86.1898l-6.94961 -23.9221 21.2362 -13.1457 118.994 -73.6583 0 -193.44 -124.032 -93.2316 -17.9303 -13.4776 5.96103 -21.5315c8.29253,-29.9481 18.137,-58.8367 29.4284,-86.5654 11.537,-28.3335 24.7181,-55.9241 39.424,-82.6489l12.0638 -21.9189 24.2315 5.70119 136.335 32.0823 136.665 -136.665 -21.7973 -153.755 -3.12402 -22.0394 19.4705 -11.0374c26.2961,-14.9067 53.7178,-28.415 82.1493,-40.4126 27.991,-11.8134 56.7733,-22.0571 86.2241,-30.6189l23.9197 -6.95315 13.148 21.2398 73.6583 118.994 193.44 0 93.2316 -124.032 13.4776 -17.9303 21.5315 5.96103zm-211.439 186.037c159.046,0 303.05,64.4729 407.288,168.714 104.241,104.238 168.714,248.242 168.714,407.288 0,159.046 -64.4729,303.05 -168.714,407.288 -104.238,104.241 -248.242,168.714 -407.288,168.714 -159.046,0 -303.05,-64.4729 -407.288,-168.714 -104.241,-104.238 -168.714,-248.242 -168.714,-407.288 0,-159.046 64.4729,-303.05 168.714,-407.288 104.238,-104.241 248.242,-168.714 407.288,-168.714z"/>
   <path id="_459777416" class="fil1" d="M1024 639.997c106.031,0 202.034,42.9815 271.526,112.475 69.4938,69.4926 112.475,165.495 112.475,271.526 0,106.031 -42.9815,202.034 -112.475,271.526 -69.4926,69.4938 -165.495,112.475 -271.526,112.475 -106.031,0 -202.034,-42.9815 -271.526,-112.475 -69.4938,-69.4926 -112.475,-165.495 -112.475,-271.526 0,-106.031 42.9815,-202.034 112.475,-271.526 69.4926,-69.4938 165.495,-112.475 271.526,-112.475z"/>
   <path id="_459777248" class="fil2" d="M1140.49 907.503c-29.811,-29.811 -70.9985,-48.2504 -116.496,-48.2504 -45.4973,0 -86.6847,18.4394 -116.496,48.2504 -29.811,29.811 -48.2504,70.9985 -48.2504,116.496 0,45.4973 18.4394,86.6847 48.2504,116.496 29.811,29.811 70.9985,48.2504 116.496,48.2504 45.4973,0 86.6847,-18.4394 116.496,-48.2504 29.811,-29.811 48.2504,-70.9985 48.2504,-116.496 0,-45.4973 -18.4394,-86.6847 -48.2504,-116.496z"/>
  </g>
  <rect class="fil3" width="2048" height="2048"/>
 </g>
</svg>
