<svg id="reshot-icon-user-pass-UFNA2W3S8P" xmlns="http://www.w3.org/2000/svg" width="32" height="32" viewBox="0 0 32 32">
  <g id="Group_15" data-name="Group 15">
    <g id="Group_13" data-name="Group 13">
      <path id="Path_22" data-name="Path 22" d="M12,14a7,7,0,1,1,7-7A7.008,7.008,0,0,1,12,14ZM12,2a5,5,0,1,0,5,5A5.006,5.006,0,0,0,12,2Z" fill="#0e6ffd"/>
    </g>
    <g id="Group_14" data-name="Group 14">
      <path id="Path_23" data-name="Path 23" d="M1,32a1,1,0,0,1-1-1V24.885a8.953,8.953,0,0,1,8.942-8.942h6.115a8.882,8.882,0,0,1,3.54.729,1,1,0,1,1-.792,1.836,6.91,6.91,0,0,0-2.748-.564H8.942A6.95,6.95,0,0,0,2,24.885V31A1,1,0,0,1,1,32Z" fill="#0e6ffd"/>
    </g>
  </g>
  <g id="Group_17" data-name="Group 17">
    <path id="Path_25" data-name="Path 25" d="M25,32a7,7,0,1,1,7-7A7.008,7.008,0,0,1,25,32Zm0-12a5,5,0,1,0,5,5A5.006,5.006,0,0,0,25,20Z" fill="#0e6ffd"/>
    <circle id="Ellipse_10" data-name="Ellipse 10" cx="7" cy="7" r="7" transform="translate(18 18)" fill="#0e6ffd"/>
  </g>
  <g id="_x37_" transform="translate(21.167 19.38)">
    <path id="Path_26" data-name="Path 26" d="M5.119,9.722H2.32a.1.1,0,0,0-.1.1v.991a.1.1,0,0,0,.1.1h2.8a.1.1,0,0,0,.1-.1V9.822A.1.1,0,0,0,5.119,9.722Zm2.3-5.871v.2A3.032,3.032,0,0,1,5.105,7.206c.013-.021.027-.043.04-.066.1-.163.174-.325.213-.4a2.7,2.7,0,0,0,1.65-2.483H5.92c0-.018,0-.039,0-.062A1.089,1.089,0,0,0,5.9,3.851ZM2.336,7.209A3.025,3.025,0,0,1,0,4.051v-.2H1.544a1.06,1.06,0,0,0-.026.339v.062H.408A2.687,2.687,0,0,0,2.084,6.743c.039.082.116.238.209.4Z" transform="translate(0 -1.515)" fill="#fff"/>
    <path id="Path_27" data-name="Path 27" d="M52.746,81.483h-1.5a.769.769,0,0,1,.2-.265.69.69,0,0,0,.232-.24v-.956h.64v.956a.69.69,0,0,0,.232.24A.769.769,0,0,1,52.746,81.483Z" transform="translate(-48.276 -73.273)" fill="#fff"/>
    <path id="Path_28" data-name="Path 28" d="M30.574,2.675c0,.023,0,.044,0,.062,0,.126,0,.147-.006.235-.011.2-.027.331-.027.332-.012.1-.029.243-.046.347-.021.122-.053.283-.079.4-.014.065-.037.151-.054.215s-.044.151-.063.216-.053.158-.076.225a4.674,4.674,0,0,1-.185.455l-.024.053c-.039.08-.117.242-.213.4-.013.023-.027.045-.04.066-.142.233-.255.381-.256.383a5.068,5.068,0,0,1-.356.428,1.309,1.309,0,0,1-.38.319.363.363,0,0,1-.075.026,1.249,1.249,0,0,1-.316.037h-.008a1.255,1.255,0,0,1-.316-.037.362.362,0,0,1-.075-.026A1.309,1.309,0,0,1,27.6,6.5a4.92,4.92,0,0,1-.356-.428s-.113-.148-.253-.38q-.021-.033-.042-.069c-.093-.158-.17-.315-.209-.4-.018-.038-.028-.06-.028-.061a4.656,4.656,0,0,1-.185-.455c-.023-.067-.056-.156-.075-.225s-.046-.151-.063-.216-.04-.15-.054-.215c-.026-.121-.059-.282-.079-.4-.018-.1-.035-.242-.047-.347,0,0-.016-.134-.026-.332,0-.088-.006-.109-.008-.235V2.675a1.06,1.06,0,0,1,.026-.339.133.133,0,0,1,.111-.093h4.128a.133.133,0,0,1,.112.093A1.089,1.089,0,0,1,30.574,2.675Z" transform="translate(-24.652)" fill="#fff"/>
  </g>
</svg>
