<svg id="reshot-icon-users-E3JSNABQH2" xmlns="http://www.w3.org/2000/svg" width="32" height="32" viewBox="0 0 32 32">
  <g id="Group_7" data-name="Group 7" transform="translate(5)">
    <path id="Path_18" data-name="Path 18" d="M12,14a7,7,0,1,1,7-7A7.008,7.008,0,0,1,12,14ZM12,2a5,5,0,1,0,5,5A5.006,5.006,0,0,0,12,2Z" transform="translate(-5)" fill="#0e6ffd"/>
  </g>
  <g id="Group_8" data-name="Group 8" transform="translate(0 15.942)">
    <path id="Path_19" data-name="Path 19" d="M23,32a1,1,0,0,1-1-1V24.885a6.95,6.95,0,0,0-6.942-6.942H8.942A6.95,6.95,0,0,0,2,24.885V31a1,1,0,0,1-2,0V24.885a8.953,8.953,0,0,1,8.942-8.942h6.115A8.953,8.953,0,0,1,24,24.885V31A1,1,0,0,1,23,32Z" transform="translate(0 -15.942)" fill="#0e6ffd"/>
  </g>
  <g id="Group_9" data-name="Group 9" transform="translate(22.058 15.942)">
    <path id="Path_20" data-name="Path 20" d="M31,32a1,1,0,0,1-1-1V24.885a6.95,6.95,0,0,0-6.942-6.942,1,1,0,0,1,0-2A8.953,8.953,0,0,1,32,24.885V31A1,1,0,0,1,31,32Z" transform="translate(-22.058 -15.942)" fill="#0e6ffd"/>
  </g>
  <g id="Group_10" data-name="Group 10" transform="translate(19)">
    <path id="Path_21" data-name="Path 21" d="M20,14a1,1,0,0,1,0-2A5,5,0,0,0,20,2a1,1,0,0,1,0-2,7,7,0,0,1,0,14Z" transform="translate(-19)" fill="#0e6ffd"/>
  </g>
</svg>
